<svg id="Capa_1" enable-background="new 0 0 512 512" height="512" viewBox="0 0 512 512" width="512" xmlns="http://www.w3.org/2000/svg"><g><path d="m437.1 0h-362.2c-41.299 0-74.9 33.6-74.9 74.9v290.31c0 4.142 3.357 7.5 7.5 7.5s7.5-3.358 7.5-7.5v-290.31c0-33.029 26.871-59.9 59.9-59.9h362.2c33.029 0 59.9 26.871 59.9 59.9v362.2c0 33.029-26.871 59.9-59.9 59.9h-362.2c-33.029 0-59.9-26.871-59.9-59.9v-41.89c0-4.142-3.357-7.5-7.5-7.5s-7.5 3.358-7.5 7.5v41.89c0 41.3 33.601 74.9 74.9 74.9h362.2c41.3 0 74.9-33.6 74.9-74.9v-362.2c0-41.3-33.601-74.9-74.9-74.9z"/><path d="m103.291 69.612c-19.288 0-34.98 15.692-34.98 34.98v17.672h-1.601c-20.4 0-36.998 16.597-36.998 36.998 0 20.4 16.598 36.998 36.998 36.998h1.601v211.151c0 19.288 15.692 34.979 34.99 34.979 19.288 0 34.979-15.692 34.979-34.979v-211.151h1.602c20.4 0 36.998-16.597 36.998-36.998 0-20.4-16.598-36.998-36.998-36.998h-1.602v-17.672c0-19.288-15.691-34.98-34.989-34.98zm-19.98 34.98c0-11.017 8.963-19.98 19.99-19.98 11.017 0 19.979 8.963 19.979 19.98v17.672h-39.97v-17.672zm39.969 302.819c0 11.017-8.963 19.979-19.989 19.979-11.018 0-19.98-8.963-19.98-19.979v-211.151h39.97v211.151zm38.6-248.149c0 12.129-9.868 21.998-21.998 21.998h-73.172c-12.13 0-21.998-9.868-21.998-21.998 0-12.129 9.868-21.998 21.998-21.998h73.172c12.13 0 21.998 9.868 21.998 21.998z"/><path d="m280.738 79.864c-6.598-6.611-15.383-10.252-24.738-10.252-19.288 0-34.979 15.692-34.979 34.98v184.435h-1.606c-20.4 0-36.998 16.597-36.998 36.998s16.598 36.998 36.998 36.998h1.606v44.389c0 19.288 15.691 34.979 34.979 34.979s34.979-15.692 34.979-34.979v-44.389h1.606c20.4 0 36.998-16.597 36.998-36.998s-16.598-36.998-36.998-36.998h-1.606v-184.435c0-9.341-3.638-18.125-10.241-24.728zm-44.717 24.728c0-11.017 8.963-19.98 19.979-19.98 5.343 0 10.357 2.077 14.126 5.853 3.774 3.775 5.854 8.792 5.854 14.127v184.435h-39.959zm39.958 302.819c0 11.017-8.963 19.979-19.979 19.979s-19.979-8.963-19.979-19.979v-44.389h39.959v44.389zm38.605-81.387c0 12.129-9.868 21.998-21.998 21.998h-73.172c-12.13 0-21.998-9.868-21.998-21.998s9.868-21.998 21.998-21.998h73.172c12.13.001 21.998 9.869 21.998 21.998z"/><path d="m436.19 132.36c4.143 0 7.5-3.358 7.5-7.5v-20.27c0-19.288-15.692-34.98-34.99-34.98-19.288 0-34.98 15.692-34.98 34.98v90.508h-1.602c-20.4 0-36.998 16.597-36.998 36.998s16.598 36.998 36.998 36.998h1.602v138.317c0 19.288 15.691 34.979 34.989 34.979 19.288 0 34.98-15.692 34.98-34.979v-138.318h1.601c20.4 0 36.998-16.597 36.998-36.998s-16.598-36.998-36.998-36.998h-1.6v-40.237c0-4.142-3.357-7.5-7.5-7.5s-7.5 3.358-7.5 7.5v40.238h-39.97v-90.508c0-11.017 8.963-19.98 19.99-19.98 11.018 0 19.98 8.963 19.98 19.98v20.27c0 4.142 3.358 7.5 7.5 7.5zm-7.501 275.051c0 11.017-8.963 19.979-19.99 19.979-11.017 0-19.979-8.963-19.979-19.979v-138.318h39.97v138.318zm38.599-175.315c0 12.129-9.868 21.998-21.998 21.998h-73.172c-12.13 0-21.998-9.868-21.998-21.998s9.868-21.998 21.998-21.998h73.172c12.13 0 21.998 9.868 21.998 21.998z"/></g></svg>